<svg width="60" height="60" viewBox="0 0 60 60" fill="none" xmlns="http://www.w3.org/2000/svg">
<g clip-path="url(#clip0_0_14)">
<path d="M37.3659 17.231C45.4121 17.231 51.1222 25.0733 48.652 32.731L41.8219 54.6861C41.7096 55.047 41.5416 55.3881 41.3249 55.6978L41.0124 56.1441C39.656 58.0817 36.7621 58.007 35.5084 56.0015C34.335 54.124 31.6822 53.9104 30.2243 55.5767L29.2584 56.6812C27.7116 58.4488 24.897 58.2229 23.652 56.231C22.407 54.2391 19.5934 54.0131 18.0465 55.7808L17.0553 56.9136C15.5787 58.6011 12.9106 58.4566 11.6247 56.6197C11.0115 55.7437 10.8383 54.6329 11.1559 53.6118L17.652 32.731L19.3551 27.4536C19.9508 25.607 20.888 23.9418 22.0817 22.5161C22.1271 22.5668 22.1763 22.6194 22.2331 22.6704C22.5445 22.9507 22.9969 23.1906 23.6334 23.3257C24.8728 23.5888 26.8922 23.4711 30.2848 22.3843C33.677 21.2977 35.3735 20.2092 36.2067 19.2515C36.6362 18.7578 36.8479 18.2849 36.9196 17.8648C36.9548 17.6584 36.9543 17.4781 36.9372 17.3316C36.9329 17.2956 36.9243 17.2624 36.9186 17.231H37.3659ZM33.152 28.231C31.7715 28.2312 30.652 29.3504 30.652 30.731C30.6521 32.1115 31.7715 33.2308 33.152 33.231C34.5327 33.231 35.6519 32.1116 35.652 30.731C35.652 29.3503 34.5327 28.231 33.152 28.231ZM43.152 28.231C41.7715 28.2312 40.652 29.3504 40.652 30.731C40.6521 32.1115 41.7715 33.2308 43.152 33.231C44.5327 33.231 45.6519 32.1116 45.652 30.731C45.652 29.3503 44.5327 28.231 43.152 28.231ZM30.7399 10.5259C30.7512 9.56511 31.9789 9.17175 32.5465 9.94681L32.8834 10.4068C33.9601 11.8781 34.7778 13.5224 35.3004 15.2691L35.9254 17.3609C35.9349 17.3872 36.5997 19.3114 29.9791 21.4322C23.3409 23.5585 22.7079 21.6784 22.7028 21.6626L21.9694 19.3736C21.4448 17.7358 21.1875 16.0238 21.2077 14.3042L21.2165 13.5767C21.2277 12.6159 22.4555 12.2224 23.0231 12.9976L24.4772 14.9839C25.0931 15.8246 26.4236 15.2801 26.2731 14.2486L25.9645 12.1314C25.8016 11.0138 27.3267 10.5255 27.8434 11.5298L28.8219 13.4322C29.2989 14.3592 30.6979 14.0291 30.7106 12.9868L30.7399 10.5259Z" fill="#121212"/>
<rect x="18.8124" y="19.6061" width="21.8449" height="7.15371" rx="2.75" transform="rotate(-18.3306 18.8124 19.6061)" fill="white" stroke="#121212" stroke-width="1.5"/>
<path d="M22.2078 8.79368C22.4089 10.4192 20.2606 15.3609 21.585 18.614L36.5404 13.6593C34.3139 5.76282 26.4761 2.29302 19.5664 5.05739C19.5106 5.7561 19.9086 6.95741 19.9086 6.95741C19.9086 6.95741 22.0067 7.16815 22.2078 8.79368Z" fill="#FF6060" stroke="#121212" stroke-width="1.5"/>
<circle cx="16.2395" cy="6.51526" r="3.39626" transform="rotate(-18.3306 16.2395 6.51526)" fill="#FF6060" stroke="#121212" stroke-width="1.5"/>
</g>
<defs>
<clipPath id="clip0_0_14">
<rect width="60" height="60" fill="white"/>
</clipPath>
</defs>
</svg>
