<svg width="50" height="51" viewBox="0 0 50 51" fill="none" xmlns="http://www.w3.org/2000/svg">
<path fill-rule="evenodd" clip-rule="evenodd" d="M17.0794 14.5159C15.8861 15.9413 14.9503 17.6073 14.3547 19.4536L12.6524 24.7308L6.15599 45.6121C5.83833 46.6331 6.01136 47.7437 6.62456 48.6197C7.91046 50.4567 10.5784 50.601 12.055 48.9135L13.0462 47.7807C14.5931 46.0129 17.4074 46.2389 18.6524 48.2309C19.8974 50.2228 22.7117 50.4488 24.2585 48.681L25.2247 47.5768C26.6827 45.9105 29.3353 46.1235 30.5087 48.001C31.7623 50.0067 34.6564 50.0822 36.0128 48.1445L36.3252 47.6982C36.542 47.3885 36.7095 47.0471 36.8218 46.6861L43.6524 24.7308C46.1226 17.0732 40.4121 9.23084 32.3659 9.23084H31.9216C31.9274 9.2622 31.9325 9.29589 31.9367 9.33184C31.9538 9.47832 31.9549 9.65815 31.9197 9.86451C31.848 10.2847 31.6364 10.7579 31.2068 11.2517C30.3735 12.2094 28.6768 13.2974 25.2844 14.3841C21.8918 15.4708 19.873 15.5891 18.6336 15.3261C17.9969 15.191 17.545 14.9504 17.2335 14.6701C17.1763 14.6186 17.1251 14.5669 17.0794 14.5159ZM30.8867 9.23084L30.9255 9.36053C30.9255 9.36053 31.6457 11.2963 24.9793 13.4317C19.2653 15.2621 18.0008 14.1242 17.7561 13.7618C17.7555 13.7608 17.7549 13.7599 17.7542 13.7589C17.715 13.7001 17.7029 13.6625 17.7029 13.6625L16.9697 11.3735C16.9041 11.1688 16.8427 10.9629 16.7855 10.756C16.3851 9.30773 16.1904 7.8092 16.2081 6.30456L16.2167 5.57649C16.2174 5.51643 16.2228 5.45859 16.2326 5.40311C16.3789 4.57094 17.4915 4.27062 18.0236 4.99768L19.4768 6.98344C20.0925 7.82487 21.4238 7.28028 21.2733 6.24853L20.9645 4.13156C20.9543 4.06171 20.9507 3.99431 20.953 3.92958C20.9881 2.95865 22.3588 2.58813 22.8432 3.52974L23.8219 5.43212C24.2989 6.35929 25.6988 6.029 25.7111 4.9864L25.74 2.52589C25.7513 1.56494 26.9794 1.17154 27.5469 1.94708L27.8832 2.40659C28.96 3.87802 29.7773 5.52267 30.3 7.26951L30.8867 9.23084ZM28.1524 25.2308C29.5331 25.2308 30.6524 24.1116 30.6524 22.7308C30.6524 21.3501 29.5331 20.2308 28.1524 20.2308C26.7717 20.2308 25.6524 21.3501 25.6524 22.7308C25.6524 24.1116 26.7717 25.2308 28.1524 25.2308ZM40.6524 22.7308C40.6524 24.1116 39.5331 25.2308 38.1524 25.2308C36.7717 25.2308 35.6524 24.1116 35.6524 22.7308C35.6524 21.3501 36.7717 20.2308 38.1524 20.2308C39.5331 20.2308 40.6524 21.3501 40.6524 22.7308Z" fill="#121212"/>
</svg>
