<svg width="60" height="60" viewBox="0 0 60 60" fill="none" xmlns="http://www.w3.org/2000/svg">
<g clip-path="url(#clip0_0_21)">
<path d="M37.3659 17.2305C45.412 17.2305 51.1221 25.0729 48.652 32.7305L41.8219 54.6856C41.7096 55.0466 41.5417 55.3886 41.3249 55.6983L41.0124 56.1446C39.6559 58.082 36.762 58.0067 35.5084 56.001C34.335 54.1236 31.6822 53.911 30.2243 55.5772L29.2584 56.6807C27.7116 58.4486 24.897 58.2225 23.652 56.2305C22.407 54.239 19.5934 54.013 18.0465 55.7803L17.0553 56.9131C15.5787 58.6007 12.9106 58.4562 11.6247 56.6192C11.0117 55.7433 10.8384 54.6332 11.1559 53.6124L17.652 32.7305L19.3551 27.4532C19.9509 25.6066 20.888 23.9413 22.0817 22.5157C22.1271 22.5663 22.1763 22.6189 22.2331 22.67C22.5446 22.9503 22.9968 23.1911 23.6334 23.3262C24.8728 23.5893 26.8922 23.4706 30.2848 22.3839C33.6767 21.2973 35.3734 20.2097 36.2067 19.252C36.6363 18.7582 36.8479 18.2845 36.9196 17.8643C36.9547 17.6582 36.9542 17.4785 36.9372 17.3321C36.9329 17.2958 36.9244 17.2621 36.9186 17.2305H37.3659ZM33.152 28.2305C31.7716 28.2307 30.6522 29.3501 30.652 30.7305C30.652 32.1111 31.7715 33.2303 33.152 33.2305C34.5327 33.2305 35.652 32.1112 35.652 30.7305C35.6518 29.35 34.5326 28.2305 33.152 28.2305ZM43.152 28.2305C41.7716 28.2307 40.6522 29.3501 40.652 30.7305C40.652 32.1111 41.7715 33.2303 43.152 33.2305C44.5327 33.2305 45.652 32.1112 45.652 30.7305C45.6518 29.35 44.5326 28.2305 43.152 28.2305ZM31.8786 9.54401C32.1277 9.57639 32.3692 9.70496 32.5465 9.94733L32.8834 10.4063C33.9602 11.8777 34.7778 13.5228 35.3004 15.2696L35.9254 17.3604C35.9254 17.3604 36.6455 19.2963 29.9791 21.4317C23.313 23.567 22.7028 21.6622 22.7028 21.6622L21.9694 19.3731C21.4449 17.7356 21.1875 16.0241 21.2077 14.3047L21.2165 13.5762C21.2222 13.0958 21.5323 12.7572 21.9118 12.6358C22.0066 12.6054 22.1058 12.589 22.2057 12.587C22.5052 12.5808 22.8103 12.7074 23.0231 12.9981L24.4772 14.9835C24.6312 15.1937 24.8297 15.3171 25.0387 15.3682C25.1431 15.3937 25.2499 15.4015 25.3551 15.3926C25.8824 15.348 26.3672 14.8931 26.2731 14.2481L25.9645 12.1319C25.8728 11.503 26.3154 11.0728 26.8122 10.9962C26.9226 10.9791 27.0357 10.9796 27.1461 10.9991C27.422 11.0478 27.682 11.2158 27.8434 11.5294L28.8219 13.4317C28.971 13.7216 29.2105 13.8886 29.4694 13.9493C29.5729 13.9736 29.6795 13.9814 29.7848 13.9727C30.2585 13.9339 30.7037 13.5727 30.7106 12.9864L30.7399 10.5255C30.7464 9.98521 31.1377 9.62425 31.5797 9.54987C31.678 9.53332 31.7789 9.53105 31.8786 9.54401Z" fill="white"/>
<rect x="18.8124" y="18.2201" width="21.8449" height="7.15371" rx="2.75" transform="rotate(-18.3306 18.8124 18.2201)" fill="white" stroke="#5D2B2B" stroke-width="1.5"/>
<path d="M22.2078 7.40766C22.4089 9.03319 20.2606 13.9748 21.585 17.228L36.5404 12.2733C34.3139 4.37681 26.4761 0.907 19.5664 3.67137C19.5106 4.37008 19.9086 5.5714 19.9086 5.5714C19.9086 5.5714 22.0067 5.78213 22.2078 7.40766Z" fill="#FF6060" stroke="#5D2B2B" stroke-width="1.5"/>
<circle cx="16.2395" cy="5.12925" r="3.39626" transform="rotate(-18.3306 16.2395 5.12925)" fill="#FF6060" stroke="#5D2B2B" stroke-width="1.5"/>
</g>
<defs>
<clipPath id="clip0_0_21">
<rect width="60" height="60" fill="white"/>
</clipPath>
</defs>
</svg>
